<svg width="23px" height="23px" viewBox="0 0 23 23" fill="none" xmlns="http://www.w3.org/2000/svg">
<g id="Logomark" clip-path="url(#clip0_1_842)">
<g id="_2C">
<path id="Vector" d="M11.5 23C5.15883 23 0 17.8412 0 11.5C0 5.15883 5.15883 0 11.5 0C17.8412 0 23 5.15883 23 11.5C23 17.8412 17.8412 23 11.5 23ZM11.5 1.66061C6.07464 1.66061 1.66061 6.07464 1.66061 11.5C1.66061 16.9254 6.07464 21.3394 11.5 21.3394C16.9254 21.3394 21.3394 16.9254 21.3394 11.5C21.3394 6.07464 16.9254 1.66061 11.5 1.66061Z" fill="black"/>
<g id="Group">
<path id="V" d="M8.90798 7.66663L11.2018 15.1536H11.287L13.5808 7.66663H16.3555L12.8947 17.8888H9.59413L6.1333 7.66663H8.90798Z" fill="black"/>
</g>
</g>
</g>
<defs>
<clipPath id="clip0_1_842">
<rect width="23" height="23" fill="white"/>
</clipPath>
</defs>
</svg>
